        <svg xmlns="http://www.w3.org/2000/svg" width="20" height="20"><g><g transform="translate(9 0)"><path d="M 0 1 C 0 0.448 0.448 0 1 0 L 1 0 C 1.552 0 2 0.448 2 1 L 2 3 C 2 3.552 1.552 4 1 4 L 1 4 C 0.448 4 0 3.552 0 3 Z" fill="currentColor"></path><path d="M 0 17 C 0 16.448 0.448 16 1 16 L 1 16 C 1.552 16 2 16.448 2 17 L 2 19 C 2 19.552 1.552 20 1 20 L 1 20 C 0.448 20 0 19.552 0 19 Z" fill="currentColor"></path></g><g transform="translate(9 0) rotate(-90 1 10)"><path d="M 0 1 C 0 0.448 0.448 0 1 0 L 1 0 C 1.552 0 2 0.448 2 1 L 2 3 C 2 3.552 1.552 4 1 4 L 1 4 C 0.448 4 0 3.552 0 3 Z" fill="currentColor"></path><path d="M 0 17 C 0 16.448 0.448 16 1 16 L 1 16 C 1.552 16 2 16.448 2 17 L 2 19 C 2 19.552 1.552 20 1 20 L 1 20 C 0.448 20 0 19.552 0 19 Z" fill="currentColor"></path></g></g><g transform="rotate(45 10 10)"><g transform="translate(9 0)"><path d="M 0 1 C 0 0.448 0.448 0 1 0 L 1 0 C 1.552 0 2 0.448 2 1 L 2 3 C 2 3.552 1.552 4 1 4 L 1 4 C 0.448 4 0 3.552 0 3 Z" fill="currentColor"></path><path d="M 0 17 C 0 16.448 0.448 16 1 16 L 1 16 C 1.552 16 2 16.448 2 17 L 2 19 C 2 19.552 1.552 20 1 20 L 1 20 C 0.448 20 0 19.552 0 19 Z" fill="currentColor"></path></g><g transform="translate(9 0) rotate(-90 1 10)"><path d="M 0 1 C 0 0.448 0.448 0 1 0 L 1 0 C 1.552 0 2 0.448 2 1 L 2 3 C 2 3.552 1.552 4 1 4 L 1 4 C 0.448 4 0 3.552 0 3 Z" fill="currentColor"></path><path d="M 0 17 C 0 16.448 0.448 16 1 16 L 1 16 C 1.552 16 2 16.448 2 17 L 2 19 C 2 19.552 1.552 20 1 20 L 1 20 C 0.448 20 0 19.552 0 19 Z" fill="currentColor"></path></g></g><path d="M 10 6 C 12.209 6 14 7.791 14 10 C 14 12.209 12.209 14 10 14 C 7.791 14 6 12.209 6 10 C 6 7.791 7.791 6 10 6 Z" fill="currentColor"></path></svg>
       