<svg xmlns="http://www.w3.org/2000/svg" width="20" height="20"><path d="M 17.969 11.679 C 17.883 11.402 17.625 11.213 17.335 11.216 L 17.156 11.248 C 14.784 11.903 12.243 11.232 10.504 9.491 C 8.765 7.75 8.096 5.208 8.753 2.836 C 8.769 2.789 8.777 2.74 8.777 2.69 C 8.793 2.477 8.702 2.27 8.534 2.138 C 8.366 2.005 8.143 1.965 7.939 2.031 C 4.16 3.09 1.676 6.698 2.034 10.607 C 2.392 14.516 5.49 17.611 9.399 17.966 C 13.308 18.321 16.913 15.834 17.969 12.054 C 18.01 11.932 18.01 11.801 17.969 11.679 Z" fill="currentColor"></path></svg>